<svg xmlns="http://www.w3.org/2000/svg" viewBox="0 0 22.586 19.763"><path d="M.807,63.63H21.779a.807.807,0,0,0,.807-.807V60.807A.807.807,0,0,0,21.779,60H.807A.807.807,0,0,0,0,60.807v2.017A.807.807,0,0,0,.807,63.63Zm0,8.066H21.779a.807.807,0,0,0,.807-.807V68.873a.807.807,0,0,0-.807-.807H.807A.807.807,0,0,0,0,68.873V70.89A.807.807,0,0,0,.807,71.7Zm0,8.066H21.779a.807.807,0,0,0,.807-.807V76.939a.807.807,0,0,0-.807-.807H.807A.807.807,0,0,0,0,76.939v2.017A.807.807,0,0,0,.807,79.763Z" transform="translate(0 -60)"/></svg>