<svg xmlns="http://www.w3.org/2000/svg" viewBox="0 0 32 32"><defs><style>.a{fill:#fff;}</style></defs><g transform="translate(-4 -5)"><rect class="a" width="32" height="32" rx="16" transform="translate(4 5)"/><path d="M10.187,10.239c-.932,0-1.381.539-2.911.539s-1.975-.539-2.911-.539A4.45,4.45,0,0,0,0,14.766v.862a1.589,1.589,0,0,0,1.559,1.617H12.994a1.589,1.589,0,0,0,1.559-1.617v-.862A4.45,4.45,0,0,0,10.187,10.239Zm2.807,5.389H1.559v-.862a2.865,2.865,0,0,1,2.807-2.91,12.318,12.318,0,0,0,2.911.539,12.2,12.2,0,0,0,2.911-.539,2.865,2.865,0,0,1,2.807,2.91ZM7.277,9.7a4.768,4.768,0,0,0,4.678-4.85A4.768,4.768,0,0,0,7.277,0,4.768,4.768,0,0,0,2.6,4.85,4.768,4.768,0,0,0,7.277,9.7Zm0-8.084A3.183,3.183,0,0,1,10.4,4.85,3.183,3.183,0,0,1,7.277,8.084,3.183,3.183,0,0,1,4.158,4.85,3.183,3.183,0,0,1,7.277,1.617Z" transform="translate(12.8 12.555)"/></g></svg>